<?xml version="1.0" encoding="UTF-8"?>
<svg version="1.1" xmlns="http://www.w3.org/2000/svg" width="221" height="82">
<path d="M0 0 C3.3081701 3.55667114 3.68970931 6.29197645 3.54296875 11.015625 C1.47775931 22.36684812 -6.056611 32.64697556 -15.375 39.125 C-16.04273438 39.54007813 -16.71046875 39.95515625 -17.3984375 40.3828125 C-19.67727942 42.68388702 -19.6950313 44.85446573 -20 48 C-19.03578125 47.72285156 -18.0715625 47.44570313 -17.078125 47.16015625 C-15.81484375 46.79792969 -14.5515625 46.43570313 -13.25 46.0625 C-11.99703125 45.70285156 -10.7440625 45.34320313 -9.453125 44.97265625 C-6.97438281 44.27445851 -4.50339838 43.60056274 -2 43 C-1.93683594 42.27554688 -1.87367188 41.55109375 -1.80859375 40.8046875 C-1.19561387 35.96537268 -0.65587732 31.87774109 2.875 28.3125 C6.97924855 25.37967239 11.03980614 25.16679222 15.9765625 25.390625 C20.82270002 26.3673659 24.27842703 28.84230172 28 32 C28.94875 31.195625 29.8975 30.39125 30.875 29.5625 C35.0100102 26.05673048 37.508783 25.8983108 43 26 C43 26.66 43 27.32 43 28 C44.65 28 46.3 28 48 28 C48.10808032 35.09727428 47.93854006 41.96094956 47 49 C49.64 46.03 52.28 43.06 55 40 C57 42 57 42 57.625 45.1875 C56.70903955 50.77485878 53.39591428 52.75921648 49 56 C47.93845703 56.6496875 47.93845703 56.6496875 46.85546875 57.3125 C44.26712015 59.66653494 43.91140367 61.88568131 43.0625 65.25 C41.13159134 72.06899632 39.0739887 76.9506742 33 81 C30.625 81.3359375 30.625 81.3359375 28 81.375 C27.13375 81.40335937 26.2675 81.43171875 25.375 81.4609375 C23 81 23 81 21.18359375 79.15625 C20 77 20 77 20.0625 74.125 C22.23451028 66.88496573 27.8194534 61.32631956 33 56 C33.66 55.67 34.32 55.34 35 55 C33.9275 54.938125 32.855 54.87625 31.75 54.8125 C28 54 28 54 25.5625 51.875 C23.27548293 47.66688858 23.55456737 44.17148408 24.5 39.5625 C24.665 39.046875 24.83 38.53125 25 38 C23.68 37.01 22.36 36.02 21 35 C21.04640625 35.56847656 21.0928125 36.13695312 21.140625 36.72265625 C21.46933096 43.75461585 19.99234917 47.56433984 15.3125 52.9375 C11.70625654 54.59442267 7.89114244 54.73093283 4 54 C2.22265625 52.4765625 2.22265625 52.4765625 1 51 C0.443125 51.19335938 -0.11375 51.38671875 -0.6875 51.5859375 C-15.66047745 56.69496021 -15.66047745 56.69496021 -24 56 C-27.23613354 54.25746655 -27.82395315 53.52814056 -29 50 C-30.051875 50.20625 -31.10375 50.4125 -32.1875 50.625 C-36.00743271 51.00073109 -37.70379135 50.84199895 -41 49 C-41.33 48.34 -41.66 47.68 -42 47 C-42.38671875 47.5053125 -42.7734375 48.010625 -43.171875 48.53125 C-43.69265625 49.1809375 -44.2134375 49.830625 -44.75 50.5 C-45.51570313 51.47453125 -45.51570313 51.47453125 -46.296875 52.46875 C-48 54 -48 54 -52 54 C-52.66 50.7 -53.32 47.4 -54 44 C-54.598125 45.27875 -55.19625 46.5575 -55.8125 47.875 C-57.31923802 51.09630198 -57.9072219 51.93814793 -61 54 C-63.5625 54.3125 -63.5625 54.3125 -66 54 C-68.45391569 50.31912647 -68.22802759 47.55644412 -68.125 43.3125 C-68.11597656 42.61060547 -68.10695312 41.90871094 -68.09765625 41.18554688 C-68.07413704 39.45688475 -68.03826713 37.72839855 -68 36 C-68.99 35.67 -69.98 35.34 -71 35 C-71.08636719 35.79664063 -71.17273438 36.59328125 -71.26171875 37.4140625 C-72.15543321 44.15381744 -72.94889466 48.32772756 -78 53 C-81.45031261 54.72515631 -85.22716304 54.49677924 -89 54 C-92.03215675 51.80168636 -92.81654398 50.55036806 -94 47 C-95.81268405 46.30748793 -95.81268405 46.30748793 -97.9375 46 C-100.08984375 45.625 -100.08984375 45.625 -102 45 C-104 42 -104 42 -104 39 C-104.66 39 -105.32 39 -106 39 C-106.29003906 40.12148437 -106.29003906 40.12148437 -106.5859375 41.265625 C-106.84632812 42.25046875 -107.10671875 43.2353125 -107.375 44.25 C-107.63023438 45.22453125 -107.88546875 46.1990625 -108.1484375 47.203125 C-108.89598509 49.65837303 -109.77123817 51.75617405 -111 54 C-113.375 54.1875 -113.375 54.1875 -116 54 C-119.41459729 48.87810406 -117.77711598 42.9085485 -117 37 C-116.17750273 33.26845975 -115.17913252 29.63380463 -114 26 C-111.625 25.8125 -111.625 25.8125 -109 26 C-108.34 26.99 -107.68 27.98 -107 29 C-106.62875 28.505 -106.2575 28.01 -105.875 27.5 C-103.23298326 25.38638661 -101.28862853 25.7140323 -98 26 C-97 27 -97 27 -96.90234375 29.28515625 C-96.91394531 30.20167969 -96.92554687 31.11820313 -96.9375 32.0625 C-96.94652344 32.98160156 -96.95554687 33.90070312 -96.96484375 34.84765625 C-96.97644531 35.55792969 -96.98804687 36.26820312 -97 37 C-95.515 37.495 -95.515 37.495 -94 38 C-93.79375 36.948125 -93.5875 35.89625 -93.375 34.8125 C-92.35674846 31.42750164 -90.95241368 29.04746052 -88.03515625 26.8828125 C-82.97705814 24.68870468 -76.75635728 24.92423577 -71.66796875 26.91015625 C-69.75 28 -69.75 28 -67 30 C-66.34 28.68 -65.68 27.36 -65 26 C-63.02 26 -61.04 26 -59 26 C-59 29.3 -59 32.6 -59 36 C-58.47599609 35.04287109 -58.47599609 35.04287109 -57.94140625 34.06640625 C-57.48636719 33.24011719 -57.03132813 32.41382813 -56.5625 31.5625 C-55.88380859 30.32693359 -55.88380859 30.32693359 -55.19140625 29.06640625 C-54 27 -54 27 -53 26 C-50.66702567 25.95907063 -48.33294775 25.95758277 -46 26 C-46 29.3 -46 32.6 -46 36 C-44.35 32.7 -42.7 29.4 -41 26 C-38.66705225 25.95758277 -36.33297433 25.95907063 -34 26 C-33.67 26.33 -33.34 26.66 -33 27 C-33.58408216 33.19127086 -33.58408216 33.19127086 -35.125 36.1875 C-36.22042612 38.01148662 -36.22042612 38.01148662 -35.625 40.25 C-35.315625 41.11625 -35.315625 41.11625 -35 42 C-32.18572861 40.87429144 -30.93961441 40.26954882 -29 38 C-27.97958322 34.60756177 -27.3879622 31.22424913 -26.76171875 27.73828125 C-24.71886157 17.71256677 -20.18006965 8.1912585 -12.2421875 1.5234375 C-7.99305267 -1.27756169 -4.79043397 -1.47397968 0 0 Z M-8 7 C-15.1196509 14.30220605 -17.60679502 22.02758544 -19 32 C-12.51540437 25.89685118 -5.4062591 18.36472587 -4.8125 9.0625 C-4.874375 8.381875 -4.93625 7.70125 -5 7 C-5.99 7 -6.98 7 -8 7 Z M-83.5 33.1875 C-85.36994799 35.44702049 -86.22465811 37.15707975 -87 40 C-86.69485998 43.72471396 -86.69485998 43.72471396 -86 47 C-84.02 47.495 -84.02 47.495 -82 48 C-79.52635068 44.343301 -78.27687814 41.43005019 -78 37 C-78.83486387 34.19932935 -78.83486387 34.19932935 -80 32 C-82.05751031 31.79309902 -82.05751031 31.79309902 -83.5 33.1875 Z M10 32 C6.73536177 35.26463823 6.42840597 38.49210523 5.91796875 42.87890625 C5.82698106 45.30611365 5.82698106 45.30611365 8 48 C9.94999129 47.80528889 9.94999129 47.80528889 12 47 C13.91184226 44.02602316 14.22778191 41.74458497 14.125 38.25 C14.09792969 37.05117188 14.09792969 37.05117188 14.0703125 35.828125 C14.04710937 35.22484375 14.02390625 34.6215625 14 34 C12.68 33.34 11.36 32.68 10 32 Z M39 32 C34.29994256 37.40506606 32.86319792 39.61268762 33 47 C33.99 47 34.98 47 36 47 C38.9445679 42.00703705 39.63495936 37.66442374 40 32 C39.67 32 39.34 32 39 32 Z M34 64 C33.01216806 65.07543783 32.03506057 66.16073217 31.0625 67.25 C30.24458984 68.15492187 30.24458984 68.15492187 29.41015625 69.078125 C27.93787201 71.08467305 27.42470811 72.57002449 27 75 C31.20390632 73.49860488 32.89110738 70.82724957 35 67 C34.67 66.01 34.34 65.02 34 64 Z " fill="#19D2E8" transform="translate(164,1)"/>
<path d="M0 0 C3.07365786 1.80803404 4.43019732 2.86039464 6 6 C6.14716542 7.80843663 6.2210887 9.62331566 6.25 11.4375 C6.27578125 12.40558594 6.3015625 13.37367187 6.328125 14.37109375 C6 17 6 17 4.734375 18.84765625 C3 20 3 20 -1 20 C-1.144375 18.96875 -1.28875 17.9375 -1.4375 16.875 C-1.91660457 13.57450187 -2.43875083 10.28731659 -3 7 C-9.89568905 7.24627461 -14.14687015 9.01177232 -19 14 C-23.6652747 20.61406034 -26.28392651 27.49107996 -26.3125 35.625 C-26.32925781 36.73101562 -26.34601562 37.83703125 -26.36328125 38.9765625 C-25.96311065 42.30701459 -25.35400594 43.65150696 -23 46 C-15.9330695 48.3556435 -10.21134394 47.10404625 -3.65234375 43.875 C-2.83443359 43.441875 -2.83443359 43.441875 -2 43 C-2 42.01 -2 41.02 -2 40 C-2.969375 39.7525 -3.93875 39.505 -4.9375 39.25 C-8 38 -8 38 -9 36 C-9 34 -9 34 -7 32 C-4.72265625 31.69921875 -4.72265625 31.69921875 -2.0625 31.6875 C-0.74958984 31.66236328 -0.74958984 31.66236328 0.58984375 31.63671875 C3 32 3 32 4.7890625 33.0234375 C6.70335106 36.14805044 6.48598999 39.38221395 6.4375 42.9375 C6.43065186 43.69587158 6.42380371 44.45424316 6.41674805 45.2355957 C6.1516134 54.63645611 3.97644702 63.37237533 -3 70 C-6.33260126 72.11210913 -9.08979954 72.29783675 -13 72.3125 C-14.03125 72.32925781 -15.0625 72.34601563 -16.125 72.36328125 C-19.31011968 71.96081368 -20.65733538 71.13430263 -23 69 C-22.125 64.125 -22.125 64.125 -21 63 C-19.22555256 63.22290579 -17.45515145 63.47841382 -15.6875 63.75 C-11.16940315 64.32933293 -11.16940315 64.32933293 -7.4375 61.9375 C-5.99877123 58.99748904 -4.87968496 56.15220443 -4 53 C-4.86625 53.495 -5.7325 53.99 -6.625 54.5 C-12.44226415 56.98631535 -18.81538217 56.66820601 -25 56 C-30.77658726 53.31089903 -34.08504859 49.43987043 -36.3125 43.5 C-38.2432256 34.29861403 -36.59248754 25.09467228 -32 17 C-31.443125 15.989375 -30.88625 14.97875 -30.3125 13.9375 C-22.22961096 3.67004636 -13.31102007 -1.7559218 0 0 Z " fill="#19D2E8" transform="translate(37,4)"/>
</svg>
